<?xml version="1.0" encoding="UTF-8"?>
<svg width="21px" height="21px" viewBox="0 0 21 21" version="1.1" xmlns="http://www.w3.org/2000/svg" xmlns:xlink="http://www.w3.org/1999/xlink">
    <!-- Generator: Sketch 46.2 (44496) - http://www.bohemiancoding.com/sketch -->
    <title>Rectangle 14</title>
    <desc>Created with Sketch.</desc>
    <defs></defs>
    <g id="Symbols" stroke="none" stroke-width="1" fill="none" fill-rule="evenodd" opacity="0.800000012">
        <g id="Home---unselected" transform="translate(-4.000000, -2.000000)" stroke="#414143">
            <g id="Home-icon">
                <g transform="translate(2.000000, 0.000000)">
                    <path d="M3.16794971,8.41859123 C2.7506517,8.69678989 2.5,9.16513688 2.5,9.66666667 L2.5,20.5962991 C2.5,21.4247263 3.17157288,22.0962991 4,22.0962991 L8,22.0962991 C8.82842712,22.0962991 9.5,21.4247263 9.5,20.5962991 L9.5,16.5962991 C9.5,15.2155873 10.6192881,14.0962991 12,14.0962991 L13,14.0962991 C14.3807119,14.0962991 15.5,15.2155873 15.5,16.5962991 L15.5,20.5962991 C15.5,21.4247263 16.1715729,22.0962991 17,22.0962991 L21,22.0962991 C21.8284271,22.0962991 22.5,21.4247263 22.5,20.5962991 L22.5,9.66666667 C22.5,9.16513688 22.2493483,8.69678989 21.8320503,8.41859123 L13.3320503,2.75192456 C12.8282012,2.41602515 12.1717988,2.41602515 11.6679497,2.75192456 L3.16794971,8.41859123 Z" id="Rectangle-14"></path>
                </g>
            </g>
        </g>
    </g>
</svg>