<?xml version="1.0" encoding="UTF-8"?>
<svg width="22px" height="22px" viewBox="0 0 22 22" version="1.1" xmlns="http://www.w3.org/2000/svg" xmlns:xlink="http://www.w3.org/1999/xlink">
    <!-- Generator: Sketch 46.2 (44496) - http://www.bohemiancoding.com/sketch -->
    <title>Settings icon</title>
    <desc>Created with Sketch.</desc>
    <defs>
        <path d="M10,12.5925926 C8.57074074,12.5925926 7.40740741,11.4292593 7.40740741,10 C7.40740741,8.57074074 8.57074074,7.40740741 10,7.40740741 C11.4292593,7.40740741 12.5925926,8.57074074 12.5925926,10 C12.5925926,11.4292593 11.4292593,12.5925926 10,12.5925926 Z" id="path-1"></path>
    </defs>
    <g id="Symbols" stroke="none" stroke-width="1" fill="none" fill-rule="evenodd" opacity="0.800000012">
        <g id="Settings---unselected" transform="translate(-9.000000, -2.000000)" fill-rule="nonzero">
            <g id="Settings-icon">
                <g transform="translate(10.000000, 3.000000)">
                    <path d="M18.9703704,7.77777778 L17.0992593,7.77777778 C16.7985185,7.77777778 16.5507407,7.61222222 16.4355556,7.33444444 C16.3203704,7.05666667 16.3788889,6.76407407 16.5911111,6.55148148 L17.9140741,5.22888889 C18.1085185,5.03444444 18.2155556,4.77555556 18.2155556,4.50074074 C18.2155556,4.22555556 18.1085185,3.96703704 17.9140741,3.77222222 L16.2277778,2.08592593 C15.8388889,1.69703704 15.1607407,1.6962963 14.7711111,2.08592593 L13.4485185,3.40851852 C13.2359259,3.62074074 12.9425926,3.68 12.6655556,3.56444444 C12.3877778,3.44925926 12.2222222,3.20148148 12.2222222,2.90074074 L12.2222222,1.02962963 C12.2222222,0.461851852 11.7603704,0 11.1925926,0 L8.80740741,0 C8.23962963,0 7.77777778,0.461851852 7.77777778,1.02962963 L7.77777778,2.90074074 C7.77777778,3.20148148 7.61222222,3.44925926 7.33444444,3.56444444 C7.05740741,3.68037037 6.76407407,3.62074074 6.55148148,3.40851852 L5.22888889,2.08592593 C4.83925926,1.6962963 4.16111111,1.69703704 3.77222222,2.08592593 L2.08592593,3.77222222 C1.89148148,3.96666667 1.78444444,4.22555556 1.78444444,4.50074074 C1.78444444,4.77555556 1.89148148,5.03407407 2.08592593,5.22888889 L3.40888889,6.55148148 C3.62111111,6.76407407 3.67925926,7.05666667 3.56444444,7.33444444 C3.44962963,7.61222222 3.20148148,7.77777778 2.90074074,7.77777778 L1.02962963,7.77777778 C0.461851852,7.77777778 0,8.23962963 0,8.80740741 L0,11.1922222 C0,11.7603704 0.461851852,12.2222222 1.02962963,12.2222222 L2.90074074,12.2222222 C3.20148148,12.2222222 3.44925926,12.3877778 3.56444444,12.6655556 C3.67962963,12.9433333 3.62111111,13.2359259 3.40888889,13.4485185 L2.08592593,14.7711111 C1.89148148,14.9655556 1.78444444,15.2244444 1.78444444,15.4992593 C1.78444444,15.7744444 1.89148148,16.032963 2.08592593,16.2277778 L3.77222222,17.9140741 C4.16148148,18.3033333 4.83925926,18.3040741 5.22888889,17.9140741 L6.55148148,16.5911111 C6.76407407,16.3788889 7.0562963,16.3203704 7.33444444,16.4355556 C7.61222222,16.5507407 7.77777778,16.7985185 7.77777778,17.0992593 L7.77777778,18.9703704 C7.77777778,19.5381481 8.23962963,20 8.80740741,20 L11.1922222,20 C11.76,20 12.2218519,19.5381481 12.2218519,18.9703704 L12.2218519,17.0992593 C12.2218519,16.7985185 12.3874074,16.5507407 12.6651852,16.4355556 C12.9433333,16.32 13.2355556,16.3788889 13.4481481,16.5911111 L14.7707407,17.9140741 C15.1603704,18.3037037 15.8385185,18.302963 16.2274074,17.9140741 L17.9137037,16.2277778 C18.1081481,16.0333333 18.2151852,15.7744444 18.2151852,15.4992593 C18.2151852,15.2244444 18.1081481,14.9659259 17.9137037,14.7711111 L16.5907407,13.4485185 C16.3785185,13.2359259 16.3203704,12.9433333 16.4351852,12.6655556 C16.55,12.3877778 16.7985185,12.2222222 17.0992593,12.2222222 L18.9703704,12.2222222 C19.5381481,12.2222222 20,11.7603704 20,11.1925926 L20,8.80740741 C20,8.23962963 19.5381481,7.77777778 18.9703704,7.77777778 Z" id="Shape" stroke="#414143"></path>
                    <g id="Shape">
                        <use fill="#FFFFFF" fill-rule="evenodd" xlink:href="#path-1"></use>
                        <path stroke="#414143" stroke-width="1" d="M10,13.0925926 C8.29459837,13.0925926 6.90740741,11.7054016 6.90740741,10 C6.90740741,8.29459837 8.29459837,6.90740741 10,6.90740741 C11.7054016,6.90740741 13.0925926,8.29459837 13.0925926,10 C13.0925926,11.7054016 11.7054016,13.0925926 10,13.0925926 Z"></path>
                    </g>
                </g>
            </g>
        </g>
    </g>
</svg>